<svg width="137" height="42" viewBox="0 0 137 42" fill="none" xmlns="http://www.w3.org/2000/svg">
<g clip-path="url(#clip0_1_13)">
<path d="M63.7687 18.7746V33.0996H60.137V31.4091C59.1229 32.6974 57.6034 33.5 55.5489 33.5C51.8053 33.5 48.7086 30.2061 48.7086 25.9371C48.7086 21.668 51.8053 18.3742 55.5489 18.3742C57.6034 18.3742 59.1246 19.1767 60.137 20.4651V18.7746H63.7687ZM60.137 25.9353C60.137 23.5294 58.4759 21.8958 56.2238 21.8958C53.9997 21.8958 52.3386 23.5294 52.3386 25.9353C52.3386 28.3412 53.9997 29.9748 56.2238 29.9748C58.4777 29.9748 60.137 28.343 60.137 25.9353V25.9353ZM65.7585 14.792C65.7585 13.5606 66.7727 12.5 67.9827 12.5C69.2206 12.5 70.2348 13.5606 70.2348 14.792C70.2348 16.0234 69.2206 17.0555 67.9827 17.0555C66.7727 17.0555 65.7585 16.0234 65.7585 14.792ZM66.1817 18.7746H69.8134V33.0996H66.1817V18.7746ZM80.1402 18.4881V22.613C78.2535 22.3834 75.8615 23.2429 75.8615 26.2521V33.0996H72.2298V18.7746H75.8615V21.2392C76.5924 19.2906 78.3672 18.4881 80.1402 18.4881V18.4881ZM88.0435 22.3265V28.286C88.0435 29.8324 89.1416 29.8609 91.2241 29.747V33.0996C86.1289 33.6726 84.4118 32.1547 84.4118 28.286V22.3265H81.9622V18.7746H84.4118V15.8811L88.0435 14.7635V18.7746H91.2241V22.3265H88.0435V22.3265ZM93.0041 14.792C93.0041 13.5606 94.0183 12.5 95.2283 12.5C96.4662 12.5 97.4804 13.5606 97.4804 14.792C97.4804 16.0234 96.4662 17.0555 95.2283 17.0555C94.0165 17.0555 93.0041 16.0234 93.0041 14.792ZM93.4255 18.7746H97.0572V33.0996H93.4255V18.7746ZM120.369 24.275V33.0996H116.737V24.533C116.737 22.8425 115.892 21.8122 114.373 21.8122C112.768 21.8122 111.755 22.9012 111.755 25.0491V33.0996H108.124V24.533C108.124 22.8425 107.279 21.8122 105.76 21.8122C104.21 21.8122 103.114 22.9012 103.114 25.0491V33.0996H99.4824V18.7746H103.114V20.2925C103.903 19.0895 105.225 18.3724 107.027 18.3724C108.772 18.3724 110.068 19.118 110.855 20.4348C111.727 19.1465 113.135 18.3724 115.05 18.3724C118.256 18.3724 120.369 20.6929 120.369 24.275ZM129.926 30.1474C131.334 30.1474 132.46 29.5459 133.079 28.7149L136.006 30.4339C134.682 32.3825 132.572 33.5 129.868 33.5C125.139 33.5 122.156 30.2061 122.156 25.9371C122.156 21.668 125.168 18.3742 129.587 18.3742C133.754 18.3742 136.709 21.7268 136.709 25.9371C136.709 26.4816 136.653 26.9692 136.567 27.455H125.955C126.464 29.3448 128.011 30.1474 129.926 30.1474V30.1474ZM133.079 24.59C132.628 22.5275 131.108 21.6965 129.589 21.6965C127.646 21.6965 126.324 22.7571 125.901 24.59H133.079V24.59Z" fill="#191928"/>
<path d="M27.9746 6.15937C25.532 4.21401 22.6309 3.3747 19.4988 3.67775L19.9101 9.80919C21.5216 9.6039 22.8683 9.97188 24.0952 10.9481C25.9694 12.4409 27.3372 15.1851 28.1634 18.1667L34.5467 18.2121L34.5474 18.21C34.3284 17.2066 34.0642 16.2206 33.7586 15.2787C32.4647 11.2958 30.4644 8.14244 27.9746 6.15937Z" fill="#191928"/>
<path d="M20.4167 3.62011V3.61801C19.5215 3.64036 18.6052 3.75766 17.6726 3.97343C12.5198 5.16885 8.22763 9.66426 6.19072 15.9982C3.75305 23.5834 4.201 31.221 7.42189 36.9516C8.2544 38.4333 10.142 38.9647 11.6352 38.1401C13.1297 37.3147 13.6664 35.4441 12.8339 33.9631C10.4427 29.7079 10.173 23.8404 12.0944 17.8646C13.7066 12.8497 16.8683 10.4694 19.0855 9.95544C19.5426 9.8493 19.9758 9.78925 20.3942 9.76551C20.4019 9.76551 20.4097 9.76691 20.4181 9.76691C22.1296 9.76691 23.5178 8.39133 23.5178 6.69385C23.5164 4.99568 22.1289 3.62011 20.4167 3.62011Z" fill="#191928"/>
<path d="M22.1277 29.0348C21.8107 27.2598 22.7566 25.7215 24.6724 25.0086C26.0325 24.5024 27.5165 24.3194 29.0836 24.272L35.2817 24.3551C36.9249 24.2796 38.2342 22.9348 38.2342 21.2876C38.2342 19.5915 36.8474 18.2166 35.1366 18.2166C34.9401 18.2166 34.7429 18.2152 34.545 18.2124L28.1602 18.1671C26.2945 18.2697 24.3773 18.5588 22.4953 19.2591C17.763 21.0202 15.226 25.3557 16.0015 29.9719L22.1277 29.0348Z" fill="#191928"/>
<path d="M35.2827 24.3548L29.0846 24.2717C29.091 24.5378 29.0931 24.7996 29.0896 25.0566C29.0424 28.8077 28.4768 31.1657 27.4076 32.0643C27.1351 32.2941 26.7294 32.4589 26.2659 32.528C24.4255 32.8038 22.8464 31.2739 22.2999 29.6937C22.2597 29.5785 22.2294 29.4633 22.1963 29.3509C22.1336 29.1386 22.1273 28.9969 22.1005 28.8935C21.8216 27.4803 20.5672 26.414 19.06 26.414C17.3484 26.414 15.9602 27.7896 15.9602 29.4871C15.9602 29.7196 15.9884 29.9451 16.0377 30.163C16.0426 30.1916 16.044 30.2146 16.0497 30.2454C16.1433 30.7237 16.2722 31.2055 16.4392 31.6866C17.9035 35.9222 21.7244 38.7034 25.8391 38.7034C26.287 38.7034 26.7392 38.6706 27.1914 38.6029C28.8008 38.362 30.2616 37.721 31.416 36.7497C34.7502 33.9455 35.2348 29.0702 35.2841 25.1362C35.2883 24.8764 35.2876 24.6167 35.2827 24.3548Z" fill="#191928"/>
<path d="M29.0849 24.2717C29.0905 24.4973 29.0934 24.7542 29.092 25.0566C29.0891 25.5321 29.0715 25.9839 29.049 26.4147H35.2513C35.2689 25.9804 35.2809 25.551 35.2865 25.1341C35.29 24.8771 35.2879 24.6174 35.283 24.3548L29.0849 24.2717Z" fill="#191928"/>
</g>
<defs>
<clipPath id="clip0_1_13">
<rect width="136" height="41" fill="white" transform="translate(0.708618 0.5)"/>
</clipPath>
</defs>
</svg>
