<svg width="71" height="71" viewBox="0 0 71 71" fill="none" xmlns="http://www.w3.org/2000/svg">
<path d="M35.6105 19C40.6253 19 44.6906 14.7467 44.6906 9.49996C44.6906 4.25329 40.6253 0 35.6105 0C30.5956 0 26.5303 4.25329 26.5303 9.49996C26.5303 14.7467 30.5956 19 35.6105 19Z" fill="#191928"/>
<path fill-rule="evenodd" clip-rule="evenodd" d="M32.5113 50.1831C32.5642 55.497 31.7189 60.7817 30.0108 65.815C29.1408 68.5221 27.8156 70.8383 24.5835 69.7059C21.5356 68.6373 21.9389 66.0857 22.7801 63.5452C25.576 55.2865 25.757 46.3698 23.2986 38.0049C20.7002 28.9475 15.3881 21.913 7.79444 16.5337C6.29965 15.5361 4.85916 14.4599 3.47905 13.3096C1.8255 11.8556 0.822993 10.0625 2.15966 7.84982C3.49633 5.63717 5.54743 5.15441 7.85205 6.04522C9.2847 6.59118 10.6179 7.36775 11.7986 8.34404C24.6008 19.2981 32.4537 32.7808 32.5401 50.1716" fill="#191928"/>
<path d="M32.5113 50.1831C32.5642 55.497 31.7189 60.7817 30.0108 65.815C29.1408 68.5221 27.8156 70.8383 24.5835 69.7059C21.5356 68.6373 21.9389 66.0857 22.7801 63.5452C25.576 55.2865 25.757 46.3698 23.2986 38.0049C20.7002 28.9475 15.3881 21.913 7.79444 16.5337C6.29965 15.5361 4.85916 14.4599 3.47905 13.3096C1.8255 11.8556 0.822993 10.0625 2.15966 7.84982C3.49633 5.63717 5.54743 5.15441 7.85205 6.04522C9.2847 6.59118 10.6179 7.36775 11.7986 8.34404C24.6008 19.2981 32.4537 32.7808 32.5401 50.1716" stroke="#191928" stroke-width="1.67284" stroke-miterlimit="10"/>
<path fill-rule="evenodd" clip-rule="evenodd" d="M38.7108 49.7866C38.9643 32.5452 46.7769 19.1832 59.4522 8.29813C60.8576 6.96311 62.6171 6.05766 64.5222 5.68893C65.4112 5.5006 66.3373 5.60361 67.1624 5.98263C67.9876 6.36166 68.6684 6.99637 69.1026 7.79239C70.1687 9.6085 69.6787 11.3901 68.319 12.7349C66.875 14.0127 65.3449 15.1898 63.7386 16.2579C48.4132 27.4303 42.6632 44.8958 48.2922 63.1944C48.4823 63.8095 48.7301 64.4073 48.8683 65.0392C49.335 67.1776 48.8683 69.0626 46.656 69.7521C44.4435 70.4416 42.669 69.614 41.7875 67.2581C39.6494 61.6842 38.6011 55.7536 38.6993 49.7866" fill="#191928"/>
<path d="M38.7108 49.7866C38.9643 32.5452 46.7769 19.1832 59.4522 8.29813C60.8576 6.96311 62.6171 6.05766 64.5222 5.68893C65.4112 5.5006 66.3373 5.60361 67.1624 5.98263C67.9876 6.36166 68.6684 6.99637 69.1026 7.79239C70.1687 9.6085 69.6787 11.3901 68.319 12.7349C66.875 14.0127 65.3449 15.1898 63.7386 16.2579C48.4132 27.4303 42.6632 44.8958 48.2922 63.1944C48.4823 63.8095 48.7301 64.4073 48.8683 65.0392C49.335 67.1776 48.8683 69.0626 46.656 69.7521C44.4435 70.4416 42.669 69.614 41.7875 67.2581C39.6494 61.6842 38.6011 55.7536 38.6993 49.7866" stroke="#191928" stroke-width="1.67284" stroke-miterlimit="10"/>
</svg>
