<svg width="80" height="80" viewBox="0 0 80 80" fill="none" xmlns="http://www.w3.org/2000/svg">
<path d="M45.5 21C30.8662 21 19 33.5379 19 49H72C72 33.5379 60.1337 21 45.5 21Z" fill="url(#paint0_linear_463_8566)"/>
<path d="M45.5 74C60.1337 74 72 61.4621 72 46L19 46C19 61.4621 30.8662 74 45.5 74Z" fill="url(#paint1_linear_463_8566)"/>
<path d="M9.15808 31.5502C9.15808 20.0402 20.0468 10.707 33.4751 10.707C46.9033 10.707 57.792 20.0402 57.792 31.5502" stroke="#191928" stroke-width="2"/>
<rect x="8.99997" y="40.6558" width="48.9499" height="10.7375" stroke="#191928" stroke-width="2"/>
<rect x="8.99997" y="31.3921" width="48.9499" height="9.57951" stroke="#191928" stroke-width="2"/>
<path d="M8.95335 34.9686L11.3387 37.354C13.262 39.2773 16.4052 39.2602 18.3614 37.3108L20.8212 34.8646C22.7774 32.9152 25.9206 32.8981 27.8438 34.8213L30.2021 37.1796C32.1389 39.1164 35.3063 39.082 37.2592 37.1019L39.5711 34.756C41.524 32.7759 44.6914 32.7415 46.6282 34.6783L48.9864 37.0365C50.9096 38.9598 54.0529 38.9427 56.0091 36.9933L58.4689 34.5471" stroke="#191928" stroke-width="2"/>
<defs>
<linearGradient id="paint0_linear_463_8566" x1="45.5" y1="21" x2="45.5" y2="49" gradientUnits="userSpaceOnUse">
<stop stop-color="#D8E6F5"/>
<stop offset="1" stop-color="#F0F0F0"/>
</linearGradient>
<linearGradient id="paint1_linear_463_8566" x1="45.5" y1="74" x2="45.5" y2="46" gradientUnits="userSpaceOnUse">
<stop stop-color="#D8E6F5"/>
<stop offset="1" stop-color="#F0F0F0"/>
</linearGradient>
</defs>
</svg>
