<svg xmlns:xlink="http://www.w3.org/1999/xlink" viewBox="0 0 800 918" fill="none" xmlns="http://www.w3.org/2000/svg" class="absolute top-0 left-0 mt-[-120%] ml-[-7%] w-[120%] md:mt-[-60%] md:ml-[-35%] md:w-[160%]" width="811"  height="931" ><path d="M302.864 424.526c0 2.177 4.354 8.711 4.354 8.711l2.177 6.534 7.256 5.808.726 2.903h-5.428c1.067 0 5.428 5.605 5.428 5.605h2.772l4.484 3.833v4.639l10.16 9.88 1.451-2.904-2.177-4.355h-2.903l-.725-4.356-2.177-4.356-.726-3.63-7.982-10.367v-2.461l-5.805-3.869-1.452-7.986 2.903 1.452 5.805 1.452.726 5.808 2.177 2.904-.726 2.904 6.531 4.355 3.628 3.63s5.08 2.904 5.08 3.63v4.029l4.354 2.505 9.433 10.163 4.354 8.712-1.451 3.63 1.451 6.424 5.08 1.561 5.805 5.082h4.194l5.965 3.63 7.257 2.178 7.982 3.629h5.297l5.588-1.451 7.256 2.903 3.628 2.904 4.354-5.082 4.354-.725-2.902-4.356.725-3.63h8.708l2.903-2.904 1.451 2.178 2.903-2.904v-9.437l2.902-1.452.726-2.178-6.531-1.452-6.531.726-4.354 3.63.726 3.629-1.451.726-.726 3.63-2.903 2.904-4.354-1.452-9.796 2.628-4.172-2.323-2.722-1.031-.725-5.082-5.805-6.533.725-21.779-7.256-2.904-2.903-7.986-5.805-5.807-7.982-4.356-3.629 5.082-6.53-2.904v-5.808l-5.806-5.808-10.159 4.356-5.079-1.452h-5.806l-19.592-6.533-8.708.726Z" fill="url(&quot;#map-b&quot;)" style="opacity: 1; transform: scale(1, 1); transform-origin: center center; will-change: opacity, transform; transition: opacity 0.75s ease 0.794543s, transform 0.75s ease;"></path><path d="M429.853 496.396v9.75l2.903 1.139-6.531 9.438-1.451-2.178h-5.806l-4.353-4.356 4.353-5.082 4.354-.726-2.902-4.355.725-3.63h8.708Z" fill="#191928" style="opacity: 1; transform: scale(1, 1); transform-origin: center center; will-change: opacity, transform; transition: opacity 0.75s ease 1.45277s, transform 0.75s ease;"></path><path d="M579.338 571.17h3.069l1.285-3.63 4.455 1.815 4.253 1.089 5.805-2.178 4.825-7.985 2.431 4.355v4.509l5.08 3.477-4.637 7.26-.443 3.629 5.769-3.629 5.842 1.451-5.16 7.914h5.16s2.177-7.188 2.902-7.188c.726 0 15.021 7.188 15.021 7.188l.218 4.428 5.08-2.178 7.815 2.178s7.895-1.452 9.833 0c1.937 1.452 9.927 7.985 9.927 7.985l10.884 2.178 2.177 10.89-9.433 13.793-6.531 10.164-4.354 4.355-.726 11.616-1.451 8.711-2.903 5.808-2.177 7.986-2.902 3.629-5.805 7.26-9.434-1.452-5.079 5.191-4.354.617-10.159 7.985v12.342l-5.806 6.533-5.805 10.164.726-6.534-2.903 1.452.726 2.904-3.628 4.356-5.806 10.163v-7.985l-9.433-7.26h-2.903l-1.451-3.172-5.08.268 13.062-14.519h5.08v-9.438h-2.903l.726-6.533-5.08-.726-3.628-7.26-8.708-1.452v-10.969l2.177-3.55-.726-5.082-2.902-5.081v-3.507l-7.982-.123-1.524-4.356v-4.741l-1.379-3.971h-5.08l-2.177-2.178h-2.902l-6.531-3.629-4.354-2.178-1.451-8.712-5.806.726-7.982 5.082-4.542-1.452h-5.617v-5.808l-3.2 2.178h-3.331l-1.451-2.904-2.54-1.139-3.991-4.305v-5.445l2.903-2.904 1.088-6.613 3.991-2.099 9.172-2.177h1.713l1.451-5.808v-8.712l-2.177-2.904v-3.629l2.903-.726.726-1.452-2.903-1.452.029-2.178h8.679l2.177-.726 2.902 3.63 3.97 1.996 4.738-3.448 5.08-2.178 2.902-2.904-5.079-3.63-1.807-4.355 3.984 1.451 7.489-1.451 7.024-2.178v-2.904l4.245 4.174.109 3.811-1.451 5.082 4.005 5.663h4.644l7.308-2.759h.007Z" fill="url(&quot;#map-c&quot;)" style="opacity: 1; transform: scale(1, 1); transform-origin: center center; will-change: opacity, transform; transition: opacity 0.75s ease 1.07247s, transform 0.75s ease;"></path><path d="M431.537 506.806v-1.887l2.67-2.715v-6.534l-1.451-2.178-2.903 2.904v9.75l1.684.66ZM432.756 507.285l2.902-1.452 5.784.726 5.827-2.178 3.599 1.452 5.834 2.904-3.628 3.63h-4.804l-4.629 2.904h-2.337l-2.017 5.808-1.452-.726-.725-2.904-1.452-2.178-6.668-2.541 3.766-5.445Z" fill="#191928" style="opacity: 1; transform: scale(1, 1); transform-origin: center center; will-change: opacity, transform; transition: opacity 0.75s ease 0.548389s, transform 0.75s ease;"></path><path d="m426.777 515.932 5.253 2.308 2.903.661 2.177-1.452-1.451-2.178-6.669-2.541-2.213 3.202ZM439.287 521.079l6.531 7.259 5.805.726 2.177-.726.725-4.356.726-.726v-7.441l1.451-2.083v-4.995l-3.628 3.63h-4.804l-4.629 2.904h-2.337l-2.017 5.808Z" fill="#191928" style="opacity: 1; transform: scale(1, 1); transform-origin: center center; will-change: opacity, transform; transition: opacity 0.75s ease 0.797494s, transform 0.75s ease;"></path><path d="m453.8 528.338 5.079 7.26v5.466l-4.353-1.11-.726-3.129-3.628-1.227v-2.185l-2.787 1.285-3.744-3.456 2.177-2.904 5.805.726 2.177-.726Z" fill="#191928" style="opacity: 1; transform: scale(1, 1); transform-origin: center center; will-change: opacity, transform; transition: opacity 0.75s ease 0.855343s, transform 0.75s ease;"></path><path d="m458.879 535.598 7.257 3.63 6.11-4.53 5.5.9 3.629 2.178 4.354 4.356-4.354 4.355-3.629-3.629.726-2.904-1.451-2.178h-3.629l-4.223 3.288-.13 1.794 2.176 1.451-3.134 2.178-6.299-4.355-2.903-1.068v-5.466Z" fill="#191928" style="opacity: 1; transform: scale(1, 1); transform-origin: center center; will-change: opacity, transform; transition: opacity 0.75s ease 1.05292s, transform 0.75s ease;"></path><path d="m485.729 542.132 5.805-7.26v-4.915l4.855-1.619 1.64.726 12.372-7.259 2.177.726-1.451 2.903-2.177.726-2.417 2.178-2.866 3.63-.102 2.73-1.865 3.078 4.528 2.816.552 5.169 2.903 2.178 6.53-.726 3.629 3.63 9.433.726-1.451 3.63-.726 4.356 2.903 4.355-1.451 2.178 2.176 3.63-1.451 1.452-2.177.726h-8.679s-.754 2.178-.029 2.178c.726 0 2.903 1.452 2.903 1.452l-.726 1.452-2.902.726v3.63l2.177 2.903v8.712l-1.452 5.808h-1.712l-1.916-1.452.726-2.178 1.451-2.178-1.451-2.178-4.354-.726-2.903.588-3.628.864-1.451-.726-.726-2.178-1.451-1.452-.726-2.178-2.177-.726-2.177-2.903-2.177-1.452-2.177.726-2.902-2.178-2.903.726-5.08-3.63-4.354-1.452v-3.732l2.177-2.076 3.629-1.452 2.177-3.63.725-2.177-1.451-2.904-.726-4.356 1.452-.726-1.452-2.904.726-1.452-2.177-2.178 4.354-4.355h-.007Z" fill="url(&quot;#map-d&quot;)" style="opacity: 1; transform: scale(1, 1); transform-origin: center center; will-change: opacity, transform; transition: opacity 0.75s ease 1.08822s, transform 0.75s ease;"></path><path d="m508.95 526.16-1.394 8.538 2.845 3.804 2.177-2.904v-7.26l5.217-2.178 1.314-2.903 7.256 3.629.856 3.993h6.967l4.709 3.819 9.223-3.819h5.123v2.664l5.74 1.155v2.744l-1.023 3.151h6.763l-4.97 3.716 2.307 2.178-3.759 2.178 2.177 6.534v2.904l-7.024 2.178-7.489 1.452-3.984-1.452 1.807 4.355 5.08 3.63-2.903 2.904s-4.354 1.452-5.079 2.178c-.726.726-4.739 3.448-4.739 3.448l-3.969-1.996-2.903-3.63 1.451-1.452-2.177-3.63 1.452-2.178-2.903-4.355.726-4.356 1.451-3.63-9.433-.726-3.629-3.63-6.531.726-2.902-2.178-.552-5.168-4.528-2.817 1.865-3.078.102-2.73 2.866-3.63 2.417-2.178Z" fill="#191928" style="opacity: 1; transform: scale(1, 1); transform-origin: center center; will-change: opacity, transform; transition: opacity 0.75s ease 1.3781s, transform 0.75s ease;"></path><path d="m564.716 540.592 6.64 3.717v2.178s6.53 6.534 6.53 7.26-4.353 5.808-4.353 5.808l5.805 11.615-7.308 2.759h-4.644l-4.005-5.663 1.451-5.082-.109-3.811-4.245-4.174-2.177-6.534 3.759-2.178-2.308-2.178 4.971-3.717h-.007ZM491.534 580.608l2.177 4.355-4.354 5.082-8.708 5.082-3.628 9.437-4.717-4.196-2.54-.885v-4.037l2.54-2.047-3.265-1.902-2.177-3.63.725-5.082 2.903-2.903 1.814-5.953 3.991.145 4.354 1.452 5.08 3.63 2.902-.726 2.903 2.178Z" fill="#191928" style="opacity: 1; transform: scale(1, 1); transform-origin: center center; will-change: opacity, transform; transition: opacity 0.75s ease 0.524075s, transform 0.75s ease;"></path><path d="M516.67 598.757c-1.915.726-9.172 2.178-9.172 2.178l-3.991 2.098-1.088 6.613-2.903 2.904v5.445l3.991 4.305 2.54 1.139s.725 2.904 1.451 2.904h3.331l3.2-2.178v5.808h5.617l3.817 7.986-1.452 2.178 1.452 4.711-2.903 4 1.451 7.26-2.902 5.082-2.903 5.081-5.805-5.081-5.08-4.356-10.159-5.082-7.257-6.534v-4.472l-10.159-18.033-1.451-6.148-5.805-6.193-5.08-3.63 1.452-2.178-1.452-3.992 4.354-5.126v4.037l2.54.885 4.717 4.196 3.628-9.437 8.708-5.082 4.354-5.082-2.177-4.355 2.177-.726 2.177 1.452 2.177 2.903 2.177.726.725 2.178 1.452 1.452.725 2.178 1.452.726 6.53-1.452 4.354.726 1.452 2.178-1.452 2.178-.725 2.178 1.915 1.452ZM576.696 552.106l4.093-1.263 2.903 2.178 5.406-1.089 4.027 1.815-2.902 4.189.725 8.152-1.843 3.514-5.413-2.062-1.285 3.63h-3.069l-5.805-11.615 3.2-3.95 1.154-1.858-1.191-1.641Z" fill="#191928" style="opacity: 1; transform: scale(1, 1); transform-origin: center center; will-change: opacity, transform; transition: opacity 0.75s ease 1.49987s, transform 0.75s ease;"></path><path d="m593.125 553.747 5.094 1.452 4.811 5.082-4.825 7.985-5.806 2.178-3.294-.842 1.843-3.514-.725-8.152 2.902-4.189ZM574.258 723.622c-.725 2.178-2.177 9.438-2.177 9.438l-1.451 10.889 6.531 2.178 4.354 1.452 6.531-.726 5.079-5.082v-7.985l-9.433-7.26h-2.903l-1.451-3.172-5.08.268ZM589.497 699.665v4.422l-5.08 3.564-4.353 1.452h-9.434v-4.719l4.949-4.719-10.754-6.533h-4.615l-9.898-10.164 2.177-5.081 3.628-6.534h5.529l6.081-2.178 5.08 3.55v10.969l8.708 1.452 3.628 7.26 5.08.726-.726 6.533Z" fill="#191928" style="opacity: 1; transform: scale(1, 1); transform-origin: center center; will-change: opacity, transform; transition: opacity 0.75s ease 0.729058s, transform 0.75s ease;"></path><path d="m550.312 682.968 2.177-5.081 3.628-6.534h5.529l6.081-2.178 5.08 3.55 2.177-3.55-.726-5.082-2.902-5.081v-3.507l-7.982-.123-1.524-4.356v-4.741l-1.379-3.971h-5.08l-2.177-2.177h-2.902l-10.885-5.808-1.451-8.712-5.806.726-7.982 5.082-4.542-1.452 3.817 7.986-1.452 2.178 1.452 4.711-2.903 4 1.451 7.26-2.902 5.081 2.902 4.356-.319 3.63 3.222 3.63-1.451 4.022 3.149 6.141.479 4.356 2.902.726 5.08-5.808 6.531 2.178 5.442-2.061 3.266.609Z" fill="url(&quot;#map-e&quot;)" style="opacity: 1; transform: scale(1, 1); transform-origin: center center; will-change: opacity, transform; transition: opacity 0.75s ease 1.47666s, transform 0.75s ease;"></path><path d="M529.994 688.05v3.942l-6.531 4.711 1.451 8.037-3.628 5.808-2.177 4.602-1.452 4.835v3.361l-3.628 6.077 3.157 12.341-1.706 7.26-.725 5.807-2.903 2.904v10.091l-2.902 9.51v6.069l-1.452 6.273 1.452 9.437s2.177 2.904 2.177 3.63-.726 4.356-.726 4.356-.726 2.178-.726 2.904c0 .725 1.452 4.355 0 5.081-1.451.726-3.628 6.534-3.628 7.26s-4.354 5.808-4.354 5.808-.726 8.014 0 8c.726-.015 3.628 2.163 3.628 2.889s0 2.904 2.177 3.63 11.611 2.178 11.611 2.178 4.354 2.904 4.354 5.081c0 2.178-1.452 8.712-1.452 8.712l3.629 7.986-5.806-2.904s-1.451 1.452-2.177 1.452c-.725 0-2.902-5.082-2.902-5.082h-5.805l2.177-4.356 5.079 1.452 2.177-4.356-4.354-1.452 2.903-5.081-5.08 2.904-.725 4.355-5.806 1.452v2.178s-6.531-3.63-5.805-3.63 2.903-1.452 2.903-1.452l2.902.726 4.354-2.178.726-2.177-8.708 1.451 7.257-2.903-5.08-.726-3.628 1.452-.784-2.447 5.138-.457-2.177-2.904-2.177 1.452-2.177-1.452 2.177-2.904h-6.531l1.451-4.356 4.354-6.533-2.902.726h-3.629l2.177-4.356h2.177l.726-3.63-4.354 2.178-.726-2.635 7.257-.995-4.354-1.452 1.451-2.904v-2.178h-2.902l-2.177-.726 2.177-4.355 3.628-5.082 1.451.726-.726 2.178v3.63l2.903-1.452-.726-2.904 2.177-.726-1.451-2.178.726-2.178v-5.082l1.451-3.629v-4.356l1.451-1.452-1.451-1.452-1.451-.726-1.452 1.452-1.451 7.259-2.177 1.452-.725-5.807 2.902-3.63.726-7.26 2.177-3.63-1.452-5.807v-4.356l-.725-3.63 2.177-1.452 4.317-10.163.958-5.808 1.256-4.356.725-11.615 2.177-3.63-2.902-5.082 2.177-2.954.66-5.031 2.242-4.356.726-13.067-.095-2.541 2.272-8.349V670.62l-.726-4.356 2.903-5.082 2.902 4.356-.319 3.63 3.222 3.63-1.451 4.021 3.149 6.142.479 4.356 2.903.726v.007Z" fill="url(&quot;#map-f&quot;)" style="opacity: 1; transform: scale(1, 1); transform-origin: center center; will-change: opacity, transform; transition: opacity 0.75s ease 0.582924s, transform 0.75s ease;"></path><path d="M523.165 852.684h2.554l4.275 4.929 9.433 3.216-5.08 1.452-4.353 2.715-5.813-1.56-2.17-4.785 1.154-5.967ZM519.109 844.858h4.426l-2.213-3.368v-6.832l5.043-4.319 1.452-6.534 7.256-4.356.726-4.355-3.628-.726-4.717-5.67 1.088-4.494 5.08-2.904 2.177.559 2.177-2.737v-6.417l3.628-.842-1.451-2.904h5.645l-4.92-2.904-2.177-5.082 2.177-3.629 3.629 1.451 3.628 1.452 4.354-2.178-1.451-3.629 2.902-2.178-1.451-4.356 5.805.726 13.787-2.178 3.629-5.808 2.902-3.629-.725-2.904h-1.902l-.275-2.178v-2.904l-6.531-2.904 1.451-2.178 1.248-9.343.203-1.546 2.177-9.438 13.062-14.519h5.08v-9.438h-2.903v4.422l-5.079 3.564-4.354 1.452h-9.434v-4.719l4.949-4.719-10.754-6.533h-4.615l-9.898-10.164-3.266-.609-5.442 2.061-6.531-2.178-5.079 5.808v3.942l-6.531 4.712 1.451 8.036-3.628 5.808-2.177 4.602-1.452 4.835v3.361l-3.628 6.077 3.157 12.341-1.705 7.26-.726 5.807-2.903 2.904v10.091l-2.902 9.51v6.069l-1.452 6.273 1.452 9.437s2.177 2.904 2.177 3.63-.726 4.356-.726 4.356l-.726 2.904s1.452 5.081 0 5.081c-1.451 0-3.628 7.26-3.628 7.26l-4.354 5.808s-.726 9.466 0 8c1.451-.015 3.628 2.889 3.628 2.889s0 2.904 2.177 3.63 11.611 2.178 11.611 2.178v.007ZM451.26 476.904l7.619-5.735 10.16-.182 8.33 3.267 9.811 6.897 10.159 2.178v2.867h-15.057l-3.084-3.593-4.898-4.008-11.067-1.8-2.256-2.541-9.717 2.65ZM508.224 495.67l1.451-4.356.726-4.356-6.894-1.444-1.814 1.778 3.628 5.474-9.789.726 1.807 2.178h10.885Z" fill="#191928" style="opacity: 1; transform: scale(1, 1); transform-origin: center center; will-change: opacity, transform; transition: opacity 0.75s ease 0.655134s, transform 0.75s ease;"></path><path d="m510.401 486.958 9.433.726 5.08 4.356-.726 2.178h-8.715l-4.231 2.178-3.018-.726 1.451-4.356.726-4.356Z" fill="#191928" style="opacity: 1; transform: scale(1, 1); transform-origin: center center; will-change: opacity, transform; transition: opacity 0.75s ease 1.24086s, transform 0.75s ease;"></path><path d="m533.985 355.196 7.619-3.993 3.244 3.993-5.428 2.272-5.428 5.329 5.428 3.281 7.271-5.437 12.336-5.082 3.033-4.356-1.582-3.63-5.079 5.082-7.373.305-5.022-5.387-.667-6.533-2.903-.726 3.629-3.63-2.903-5.082-11.611 1.452-13.787 10.89 8.708-10.89 3.628-2.904h3.004l4.978-4.355h30.463l6.546-7.26 9.433-2.178 2.903-3.63-2.903-.726 1.451-2.904-2.902-4.355h-3.868l-.486-2.904-12.336 4.356.725-2.904 11.611-4.356-7.982-3.63-7.257-1.452-2.177-4.356-6.531-3.629 5.806-2.178-2.903-4.356-5.08-7.746-7.256-11.855-3.628 6.534-6.531 6.533h-7.257l-5.079-6.533-1.452-8.712-8.708-2.178-6.53-7.259-5.08-2.178-5.805 1.452-7.039-1.452-5.297 2.904 2.902 4.355-2.902 4.654 2.902 6.962-2.902 8.82 5.805 3.521 2.177 7.986-3.628 7.985-4.354 2.853-7.257 2.229 3.628 5.082.726 8.711.726 4.356-2.903 3.63-6.531-1.452-6.531-7.26V298.23l-2.902-2.2-13.788-.726-6.531-5.082-10.159-5.807-7.982-2.904-7.982 2.178v-10.258l-7.619-3.891v-11.071l5.442-8.901 7.982-5.807 4.354-3.63-10.885-6.534 13.788 2.904 3.628-4.356 4.354.726 5.805-6.533-12.336-5.082 8.708 1.452 7.256-2.904-2.902-3.63 7.256-.726 2.177 2.178 14.513-6.534-1.451-5.807-2.177-3.63 5.805-3.63-4.354-5.082-5.805-2.178h-10.507l1.799 5.082-1.451 3.63-3.628 7.26-2.177-4.356-1.452 8.711-7.256-7.259 3.628-3.63-3.628-5.082-2.903.726-3.628 5.082-2.903-5.082 1.474-5.082-6.553-2.903v-5.082l-6.531-5.808-5.442-5.009 6.893-4.428-2.902-3.63 7.256.726 7.982-10.164-13.061-2.904-10.885 2.178-1.451 6.534 3.628 7.986-.726 7.985-5.442 1.663v9.227l9.796 5.081 2.903 5.808-2.903 4.356-3.628 2.178-.726 6.533-4.354-4.355 5.08-9.438-6.168-5.858-10.522.05v9.169l-2.177 3.899-7.257 1.452-15.238-3.63-7.983-5.082-12.336 4.356 2.177 7.986-3.628-2.904s-8.708-.726-10.885 0c-2.177.726-11.61 2.178-13.062 2.178-1.451 0-5.805-3.63-5.805-3.63l8.708-4.356-8.708-4.16-13.787-.922-15.965-7.259-12.336 4.355-.725-4.355-9.434 5.807s-5.079-8.711-6.531-7.985c-1.451.726-23.946 11.615-23.946 11.615l13.787-10.163-23.946 3.629-1.452 3.63-9.433 1.452-5.805-5.082h-7.983l2.903 70.419 8.708 2.178 6.531 5.807 7.256-3.629 7.982 5.807 8.708 15.246 7.257 3.629v9.54l2.177 7.883 5.805 4.356 3.628 7.986 13.062 6.534-10.159-2.904-4.354 1.452 15.964 11.615 8.708.726h2.903V335.5l-3.706-1.357h165.889l9.434 6.534v6.548l20.318 4.341 5.08 7.26h14.817l5.501-4.356h14.513l10.885-12.341 5.805.726 6.531 12.341h-.007Z" fill="url(&quot;#map-g&quot;)" style="opacity: 1; transform: scale(1, 1); transform-origin: center center; will-change: opacity, transform; transition: opacity 0.75s ease 0.739822s, transform 0.75s ease;"></path><path d="m581.515 331.602 2.902-9.394-6.531 1.409-2.445 3.288-3.36 7.601-4.354 8.712 16.69-1.605s0 3.057 1.452 3.057h6.784l3.375 1.452v-4.785l-5.014-7.172-9.499-2.563ZM469.764 236.501l-6.531-3.63-2.177-3.629-11.61-5.082-2.903-2.904-3.628 5.808-5.08 10.889h5.109l4.325 2.178 10.885-4.356 5.805 2.178 5.805-1.452ZM274.926 334.041h166.175l9.433 6.533v6.548l20.319 4.342 5.079 7.259h14.818l5.501-4.355h14.513l10.884-12.342 5.806.726 6.531 12.341-7.983 6.534-5.442-1.815-7.982 6.534 2.177 8.711-15.239 5.808-2.903 6.534-5.079 10.889-2.903-7.985-5.079 3.63 7.256 10.889-3.628 7.26s-7.982 5.807-10.159 6.533c-2.177.726-12.336 9.438-12.336 9.438v10.163l5.805 11.616v5.807l-3.091 5.808-4.166-2.904-5.079-10.889 1.451-5.082-5.079-5.808-5.806 2.904-7.256-4.356-3.628 1.452-4.354-3.629-7.983 1.451 3.629 5.808-3.629-.726-3.628 1.452-4.354-2.904-3.628 1.452-9.071-2.766-7.619 4.944-5.805 7.986v5.081l.725 2.904-7.256-2.904-2.903-7.985-5.805-5.808-7.982-4.356-3.628 5.082-6.531-2.904v-5.807l-5.806-5.808-10.159 4.356-5.079-1.452h-5.806l-19.592-6.534-8.708.726-4.354-7.986h-5.079l-4.354-3.629-2.903-.726-5.08-6.534-.725-5.082-2.838-2.722-2.605-4.436-3.991-3.731v-5.561l-1.451-3.151.726-5.808-2.177-5.807 2.177-3.63v-15.971l2.177-.726-5.08-11.616 8.708.726h2.902v-2.178l-3.991-1.814ZM189.662 263.362l-15.964-1.452-12.336-5.082-2.903 4.356v2.904h-4.354l-12.336 5.081.726-5.807 4.658-4.538h5.74l-3.867-4.9-8.708 6.534-7.982 7.985 1.451 5.082-13.062 8.712-11.61 8.711-18.867 6.534 14.513-8.712 11.61-9.437.726-7.26-10.159 1.452s-9.434 0-10.16-.726c-.725-.726-2.902-8.711-2.902-8.711l-7.257 2.904-6.262-8.168-5.348-6.352 5.805-5.081 4.354-6.534h8.708l5.08-4.356.725-7.985-9.433 4.355s-2.903-.726-5.08-.726-10.159-2.904-10.159-2.904l-5.805-7.259 12.336-5.808 10.885 5.082 6.53-5.082s-7.982-1.452-9.433-1.452c-1.451 0-6.53-9.437-6.53-9.437l-7.257-2.178 1.451-4.356 8.708-2.178 4.354-7.259 10.159-3.63 5.079-3.63h6.531l8.708-4.356s6.531 3.63 7.982 3.63c1.452 0 9.434 2.178 9.434 2.178h9.433s13.062 4.356 14.513 4.356c1.452 0 11.611-1.452 11.611-1.452l5.079 1.452s13.062 2.177 13.062 3.629 2.903 70.419 2.903 70.419l8.708 2.178 6.531 5.807 7.256-3.629 7.982 5.807 8.708 15.246 7.257 3.629v9.54l-7.257-5.184-5.805.726-2.177-8.711-.726-3.63-1.451-8.712-4.354 7.986v-6.534l-2.903-2.904-5.079 4.356-13.788-10.889.726-2.904-8.708-.726Z" fill="#191928" style="opacity: 1; transform: scale(1, 1); transform-origin: center center; will-change: opacity, transform; transition: opacity 0.75s ease 0.931691s, transform 0.75s ease;"></path><path d="m470.146 236.417-6.622-3.682-2.207-3.682-11.773-5.155-2.943-2.946-3.679 5.891-5.15 11.047h5.18l4.385 2.209 11.037-4.419 5.886 2.21 5.886-1.473Z" fill="#191928" style="opacity: 1; transform: scale(1, 1); transform-origin: center center; will-change: opacity, transform; transition: opacity 0.75s ease 1.19363s, transform 0.75s ease;"></path><path d="M480.447 225.371v5.155l13.98 3.682 7.806-4.419 11.324 7.364v5.118l21.705 8.734-9.351-12.821 17.864 1.908-3.325-9.574-11.221-5.155 1.979-11.046 14.716 13.992 3.252-7.364 11.633-6.628-16.357-8.837-17.658-4.419 2.207-7.364-5.886-11.046h-13.413l-.567-8.101h-8.572l-11.294-11.782-10.301 4.418-15.385-10.31-16.253 2.946v9.669l2.538 7.269-4.746-2.946-4.414-10.148 5.15-10.472-13.244 2.946-4.414 5.891v14.729l6.622 5.891 10.3 3.682 19.131 1.473 11.772.736s-.736-10.31.736-8.837c1.471 1.473 13.244 8.837 13.244 8.837l.736 4.419 11.772 6.628 4.415 7.364v3.682l10.301 1.473 2.943 5.155-5.901 3.682-11.758-5.892-3.679 1.473v7.364h-11.037l-7.357 1.473.007.008Z" fill="#191928" style="opacity: 1; transform: scale(1, 1); transform-origin: center center; will-change: opacity, transform; transition: opacity 0.75s ease 1.35676s, transform 0.75s ease;"></path><path d="m389.211 174.558-8.307 2.209s-1.258-6.628-2.73-6.628c-1.471 0-11.037-5.891-11.037-5.891l1.472-5.155 9.565 2.504-3.914-8.395h8.726l6.225-2.946 6.254 2.946-5.518 8.1 4.414-1.473 2.752 3.682-1.648 7.438-6.254 3.609Z" fill="#191928" style="opacity: 1; transform: scale(1, 1); transform-origin: center center; will-change: opacity, transform; transition: opacity 0.75s ease 1.00308s, transform 0.75s ease;"></path><path d="M348.007 191.495s-2.943 2.21-3.679 2.946c-.735.736-8.093 2.209-8.093 2.209l-13.244 2.946-5.151-1.473-2.207-4.418-11.772-.737-5.887-5.155 12.509-3.682 11.036 2.209 2.671-2.209-10.028-2.946-12.509 1.473-7.357-2.209 6.629-3.682 7.35-2.209h-12.339l-3.848-4.419 2.943-5.155 12.509-5.891h6.474l1.619 2.946 7.358-.737 3.899 2.209 3.459 2.946h4.414l-4.414-5.891 2.943.736 6.622 2.946s0 8.1.736 8.1c.735 0 5.15.737 5.15.737l-4.415-12.519 3.584-1.473 6.717 1.473-2.943-5.155 6.622-.737 2.207 2.21v2.636l-2.207 3.255.736 7.364 1.471 2.688.692 4.308 11.081 6.26 5.15 4.418-7.358 1.856-4.414 2.563 4.414 1.384 3.679-2.121 1.472 2.21v2.209l-11.037.736-7.357-2.209-5.887-2.946Z" fill="#191928" style="opacity: 1; transform: scale(1, 1); transform-origin: center center; will-change: opacity, transform; transition: opacity 0.75s ease 1.47092s, transform 0.75s ease;"></path><path d="M290.116 150.256h-6.232l-4.304-3.682-15.635 1.841 2.7 4.787-2.7 6.104v4.205l-5.702 5.892s2.943 1.473 3.678 1.473h7.005l1.243 6.259 4.003 1.716s3.929-3.557 4.665-3.557c.736 0 5.15-1.473 5.15-1.473l1.472-4.418 4.65-1.569 1.972-4.323 9.565-3.682 5.886-4.418-8.071-5.155h-6.232l-2.495 2.946-.625-2.946h.007Z" fill="#191928" style="opacity: 1; transform: scale(1, 1); transform-origin: center center; will-change: opacity, transform; transition: opacity 0.75s ease 1.4577s, transform 0.75s ease;"></path><path d="m354.629 139.21-2.943-5.892-5.15 1.473-7.358-6.628-5.886.994-1.472 9.316-9.565-8.837-10.117-1.473-9.764 5.523-2.928 6.996 8.829 2.946 8.094-3.682 10.669 2.106s-14.348 2.313-13.612 3.049c.736.736 5.15 2.946 5.886 3.682.736.736 13.98-3.822 13.98-3.822l7.358-1.333h10.3l3.679-4.418Z" fill="#191928" style="opacity: 1; transform: scale(1, 1); transform-origin: center center; will-change: opacity, transform; transition: opacity 0.75s ease 0.60358s, transform 0.75s ease;"></path><path d="m301.653 122.272-8.093-2.209-12.508 9.573-7.358.737v4.19l8.093.228 4.415 1.473 1.472-4.19 2.943.508 1.471-5.089 5.151-1.539.735 4.419 6.622-3.683v-2.518l2.944-2.497-8.094-3.741 2.207 4.338Z" fill="#191928" style="opacity: 1; transform: scale(1, 1); transform-origin: center center; will-change: opacity, transform; transition: opacity 0.75s ease 0.762654s, transform 0.75s ease;"></path><path d="m331.82 120.063 4.415-10.31-8.094-4.419-11.772 3.682-3.679 5.892 5.68 3.026 6.092 2.909 7.358-.78Z" fill="#191928" style="opacity: 1; transform: scale(1, 1); transform-origin: center center; will-change: opacity, transform; transition: opacity 0.75s ease 1.13115s, transform 0.75s ease;"></path><path d="m389.211 129.636-5.187-2.54-9.529-.847 5.886 5.596-10.072-4.749-3.172 3.932-7.357-5.074v8.196l5.15 1.378 6.416 2.982 4.989-2.246 1.839 3.682v2.946h9.197l1.84-5.627 2.207-4.683-2.207-2.946Z" fill="#191928" style="opacity: 1; transform: scale(1, 1); transform-origin: center center; will-change: opacity, transform; transition: opacity 0.75s ease 0.938568s, transform 0.75s ease;"></path><path d="m404.294 138.51 6.254 2.909v5.155l-8.866 2.29-8.792-7.445 11.404-2.909Z" fill="#191928" style="opacity: 1; transform: scale(1, 1); transform-origin: center center; will-change: opacity, transform; transition: opacity 0.75s ease 0.66325s, transform 0.75s ease;"></path><path d="m383.678 113.089-3.878-7.755h-6.651l-3.068-3.682-5.887-1.473h-10.985v5.155h11.074l-7.446 3.682 4.959 4.073 9.02-2.6 8.705 7.445 4.157-4.845Z" fill="#191928" style="opacity: 1; transform: scale(1, 1); transform-origin: center center; will-change: opacity, transform; transition: opacity 0.75s ease 0.871225s, transform 0.75s ease;"></path><path d="M404.294 113.089v-4.036h-7.181l-7.895-3.719-1.847 3.719 5.519 5.825 11.404-1.789Z" fill="#191928" style="opacity: 1; transform: scale(1, 1); transform-origin: center center; will-change: opacity, transform; transition: opacity 0.75s ease 1.31236s, transform 0.75s ease;"></path><path d="m474.561 139.946-8.064-3.682h-12.538l-10.728 3.682-10.528-3.682h-6.924v-3.638l2.428-2.217-9.352-2.246h-5.261l-11.875-4.691h-7.52v2.482l2.907 2.209 11.22 3.55 2.958-.604 5.15 5.155-1.471 5.891 2.207 2.21 6.622 1.472 6.622-1.472s5.151 2.945 6.622 2.945h16.305l2.825-2.209 10.883 2.209 3.833-2.945 3.679-4.419Z" fill="#191928" style="opacity: 1; transform: scale(1, 1); transform-origin: center center; will-change: opacity, transform; transition: opacity 0.75s ease 1.24181s, transform 0.75s ease;"></path><path d="M447.337 100.916s-6.622 2.946-7.358 2.946c-.735 0-7.357 8.1-7.357 8.1s-4.415-2.209-5.887-1.473c-1.471.737-8.093 2.946-8.093 2.946l-9.565-7.364 5.349-5.892h-13.987s-8.602-7.592-6.232-7.474c2.369.118 8.255-3.572 8.255-3.572l-5.15-2.945 5.886-2.946h4.032l-.353-6.628 5.15 1.473 8.543 6.296 6.909 1.805 2.943 5.89s3.517-3.291 3.965-3.122c.449.17 3.392.914 3.392.914v4.418l1.722.737-.25 3.682 8.093-.324v2.533h-.007Z" fill="#191928" style="opacity: 1; transform: scale(1, 1); transform-origin: center center; will-change: opacity, transform; transition: opacity 0.75s ease 0.525134s, transform 0.75s ease;"></path><path d="M415.699 75.141 426 77.351l-.736 2.209v2.209l2.943.677 5.15 3.005 8.094-2.21 2.943 3.683 9.565.736 4.415-2.945 3.679 1.472 10.301-2.945 3.678-3.682 1.472 5.155-5.607 2.945-12.787 1.473s8.829 5.892 8.093 6.628c-.736.736-5.886 2.21-5.886 2.21l-8.829-8.102-9.566-.736-.735 3.682 2.943 2.946 5.577 2.21 3.988 6.627 6.622 2.946-1.464 1.509-13.252-3.719-7.357 2.21-2.208 5.154 8.131.737 4.429-3.329.677 1.856-3.679 2.916 2.862 3.049 3.76 2.128-5.15 1.473-2.944-2.946-3.678-2.945h-7.358l1.471 4.418 4.415.737-.736 1.473-8.093 1.472-4.415 2.946 1.472 1.775h13.082l5.312 2.077 5.15-.906 2.944-1.473h10.3l3.444 2.379 4.65.567 1.472-1.812 6.621-1.134.736-3.682h-4.414l-1.472.736-2.943-2.945-8.667 1.2-2.37-2.673s2.208-1.473 2.943-1.473c.736 0 5.151.736 5.151.736h8.093l2.245-2.128-.552-3.049 4.297-1.443h7.615l5.121-8.101-.552-2.209-7.137-1.473h-5.15l5.886-2.945 6.953.508 4.083.228V97.69l1.472-3.402 6.637.737 3.664-.737 4.415-4.418 11.772-5.892 9.565-4.418h5.15l.611-2.946h-14.958l.368-2.21 11.036-1.472 9.565 1.473 9.566-8.1h-8.653l-1.648-5.156h-7.078l-10.581 2.21s4.415-4.42 3.679-4.42c-.736 0-13.98 1.474-13.98 1.474l-2.943-2.21-5.886 1.473-3.392-1.473h-5.261l-1.648 2.21-3.679-1.473-12.508.736-2.207 1.473-10.301-1.473-2.208 2.21-2.943.736-2.207 2.21-6.622.736-1.472 2.945-8.093-2.945h-5.151l-2.207 2.209-1.471 2.946-3.679-.737-4.415-1.473-3.679 2.21-2.207 2.209-3.679-1.473-4.415 1.473-3.679 2.21h.008Z" fill="#191928" style="opacity: 1; transform: scale(1, 1); transform-origin: center center; will-change: opacity, transform; transition: opacity 0.75s ease 0.773681s, transform 0.75s ease;"></path><defs style="opacity: 1; transform: scale(1, 1); transform-origin: center center; will-change: opacity, transform; transition: opacity 0.75s ease 0.827372s, transform 0.75s ease;"><radialGradient id="map-b" cx="0" cy="0" r="1" gradientUnits="userSpaceOnUse" gradientTransform="matrix(-67.99993 -88.00067 168.78322 -130.42227 392 492)"><stop stop-color="#191928"></stop><stop offset="0.928" stop-color="#43434F"></stop></radialGradient><radialGradient id="map-c" cx="0" cy="0" r="1" gradientUnits="userSpaceOnUse" gradientTransform="rotate(-143.881 416.146 222.756) scale(137.412 268.923)"><stop stop-color="#191928"></stop><stop offset="1" stop-color="#38384B"></stop></radialGradient><radialGradient id="map-d" cx="0" cy="0" r="1" gradientUnits="userSpaceOnUse" gradientTransform="rotate(120.618 92.026 423.688) scale(44.6767 78.2818)"><stop stop-color="#191928"></stop><stop offset="0.719" stop-color="#29293B"></stop><stop offset="1" stop-color="#43434F"></stop></radialGradient><radialGradient id="map-e" cx="0" cy="0" r="1" gradientUnits="userSpaceOnUse" gradientTransform="matrix(23.00003 52.00001 -99.74012 44.11587 519 644)"><stop stop-color="#191928"></stop><stop offset="1" stop-color="#1F1F2F"></stop></radialGradient><radialGradient id="map-f" cx="0" cy="0" r="1" gradientUnits="userSpaceOnUse" gradientTransform="matrix(-5.00002 78 -46.8179 -3.00116 511 719)"><stop stop-color="#191928"></stop><stop offset="1" stop-color="#252535"></stop></radialGradient><radialGradient id="map-g" cx="0" cy="0" r="1" gradientUnits="userSpaceOnUse" gradientTransform="rotate(146.856 155.558 187.161) scale(196.03 358.75)"><stop stop-color="#191928"></stop><stop offset="0.719" stop-color="#29293B"></stop><stop offset="1" stop-color="#43434F"></stop></radialGradient><radialGradient id="map-b" cx="0" cy="0" r="1" gradientUnits="userSpaceOnUse" gradientTransform="matrix(-67.99993 -88.00067 168.78322 -130.42227 392 492)"><stop stop-color="#191928"></stop><stop offset="0.928" stop-color="#43434F"></stop></radialGradient><radialGradient id="map-c" cx="0" cy="0" r="1" gradientUnits="userSpaceOnUse" gradientTransform="rotate(-143.881 416.146 222.756) scale(137.412 268.923)"><stop stop-color="#191928"></stop><stop offset="1" stop-color="#38384B"></stop></radialGradient><radialGradient id="map-d" cx="0" cy="0" r="1" gradientUnits="userSpaceOnUse" gradientTransform="rotate(120.618 92.026 423.688) scale(44.6767 78.2818)"><stop stop-color="#191928"></stop><stop offset="0.719" stop-color="#29293B"></stop><stop offset="1" stop-color="#43434F"></stop></radialGradient><radialGradient id="map-e" cx="0" cy="0" r="1" gradientUnits="userSpaceOnUse" gradientTransform="matrix(23.00003 52.00001 -99.74012 44.11587 519 644)"><stop stop-color="#191928"></stop><stop offset="1" stop-color="#1F1F2F"></stop></radialGradient><radialGradient id="map-f" cx="0" cy="0" r="1" gradientUnits="userSpaceOnUse" gradientTransform="matrix(-5.00002 78 -46.8179 -3.00116 511 719)"><stop stop-color="#191928"></stop><stop offset="1" stop-color="#252535"></stop></radialGradient><radialGradient id="map-g" cx="0" cy="0" r="1" gradientUnits="userSpaceOnUse" gradientTransform="rotate(146.856 155.558 187.161) scale(196.03 358.75)"><stop stop-color="#191928"></stop><stop offset="0.719" stop-color="#29293B"></stop><stop offset="1" stop-color="#43434F"></stop></radialGradient></defs></svg>