<svg xmlns:xlink="http://www.w3.org/1999/xlink" width="220" height="110" fill="none" xmlns="http://www.w3.org/2000/svg"><g opacity="1" fill="none"><path d="M135.89 52.274c0-.093-.005-.18-.005-.274H155c0 27.558-21.026 49.912-47 50V82.115c15.427-.148 27.89-13.45 27.89-29.841Z" fill="url(&quot;#building-e&quot;)"></path><path d="M106.218 102.544a51.98 51.98 0 0 1-19.6-3.99A51.769 51.769 0 0 1 70 87.467 51.05 51.05 0 0 1 58.9 70.976 50.256 50.256 0 0 1 55 51.59l51.218.366v50.589Z" fill="url(&quot;#building-f&quot;)"></path><path d="M154.747 51.566c.096-13.41-5.075-26.272-14.374-35.755C131.075 6.328 118.409 1 105.162 1 91.916 1 79.174 6.327 69.739 15.81c-9.434 9.483-14.788 22.344-14.884 35.755h99.892Z" fill="url(&quot;#building-g&quot;)"></path><path d="M55.361 51.566c-.096 13.411 5.075 26.273 14.374 35.756s21.964 14.811 35.211 14.811c13.246 0 25.988-5.328 35.423-14.81 9.434-9.484 14.788-22.346 14.884-35.757H55.361Z" fill="url(&quot;#building-h&quot;)"></path><path d="M96.025 103.434c.092-12.845-4.86-25.165-13.767-34.248C73.351 60.103 61.22 55 48.532 55c-12.688 0-24.893 5.103-33.93 14.186C5.567 78.269.439 90.588.347 103.434h95.68Z" fill="url(&quot;#building-i&quot;)"></path><path d="M189.2 102.434c.072-10.193-3.857-19.969-10.925-27.177A37.456 37.456 0 0 0 151.512 64c-10.069 0-19.753 4.05-26.924 11.257a38.952 38.952 0 0 0-11.313 27.177H189.2Z" fill="url(&quot;#building-j&quot;)"></path></g><g opacity="0" fill="none"><path d="M107 20.459c15.972.68 28.709 14.129 29.069 30.691h17.922C153.485 24.368 132.713 2.795 107 2.164v18.294Z" stroke="#000000" stroke-width="2px" style="transform: none; transform-origin: 130.495px 26.657px;" transform-origin="130.49549865722656px 26.657000064849854px" fill="none"></path><path d="M106.218 1.141a52.33 52.33 0 0 0-19.6 3.962 51.8 51.8 0 0 0-16.617 11A50.642 50.642 0 0 0 58.9 32.47 49.542 49.542 0 0 0 55 51.71l51.218-.366V1.14Z" stroke="#000000" stroke-width="2px" style="transform: none; transform-origin: 80.609px 26.425px;" transform-origin="80.60900115966797px 26.424999833106995px" fill="none"></path><path d="M155.253 51.566c.096 13.411-5.075 26.273-14.373 35.756-9.299 9.483-21.965 14.811-35.212 14.811-13.246 0-25.988-5.328-35.423-14.81-9.434-9.484-14.788-22.346-14.884-35.757h99.892Z" stroke="#000000" stroke-width="2px" fill="none"></path><path d="M96.025 103.434c.092-12.845-4.86-25.165-13.767-34.248C73.351 60.103 61.22 55 48.532 55c-12.688 0-24.893 5.103-33.93 14.186C5.567 78.269.439 90.588.347 103.434h95.68Z" stroke="#000000" stroke-width="2px" fill="none"></path><path d="M189.2 102.434c.072-10.193-3.857-19.97-10.925-27.177A37.456 37.456 0 0 0 151.512 64c-10.069 0-19.754 4.05-26.924 11.257a38.952 38.952 0 0 0-11.313 27.177H189.2Z" stroke="#000000" stroke-width="2px" fill="none"></path></g><defs><linearGradient id="building-e" x1="131.5" y1="102" x2="131.5" y2="52" gradientUnits="userSpaceOnUse"><stop stop-color="#D8E6F5"></stop><stop offset="1" stop-color="#F0F0F0"></stop></linearGradient><linearGradient id="building-f" x1="157.435" y1="52.321" x2="55" y2="52.321" gradientUnits="userSpaceOnUse"><stop stop-color="#D8E6F5"></stop><stop offset="1" stop-color="#F0F0F0"></stop></linearGradient><linearGradient id="building-g" x1="105.162" y1="1" x2="105.162" y2="102.133" gradientUnits="userSpaceOnUse"><stop stop-color="#D8E6F5"></stop><stop offset="1" stop-color="#F0F0F0"></stop></linearGradient><linearGradient id="building-h" x1="104.946" y1="102.133" x2="104.946" y2="1" gradientUnits="userSpaceOnUse"><stop stop-color="#D8E6F5"></stop><stop offset="1" stop-color="#F0F0F0"></stop></linearGradient><linearGradient id="building-i" x1="48.532" y1="55" x2="48.532" y2="151.868" gradientUnits="userSpaceOnUse"><stop stop-color="#D8E6F5"></stop><stop offset="1" stop-color="#F0F0F0"></stop></linearGradient><linearGradient id="building-j" x1="151.512" y1="64" x2="151.512" y2="140.868" gradientUnits="userSpaceOnUse"><stop stop-color="#D8E6F5"></stop><stop offset="1" stop-color="#F0F0F0"></stop></linearGradient><linearGradient id="building-e" x1="131.5" y1="102" x2="131.5" y2="52" gradientUnits="userSpaceOnUse"><stop stop-color="#D8E6F5"></stop><stop offset="1" stop-color="#F0F0F0"></stop></linearGradient><linearGradient id="building-f" x1="157.435" y1="52.321" x2="55" y2="52.321" gradientUnits="userSpaceOnUse"><stop stop-color="#D8E6F5"></stop><stop offset="1" stop-color="#F0F0F0"></stop></linearGradient><linearGradient id="building-g" x1="105.162" y1="1" x2="105.162" y2="102.133" gradientUnits="userSpaceOnUse"><stop stop-color="#D8E6F5"></stop><stop offset="1" stop-color="#F0F0F0"></stop></linearGradient><linearGradient id="building-h" x1="104.946" y1="102.133" x2="104.946" y2="1" gradientUnits="userSpaceOnUse"><stop stop-color="#D8E6F5"></stop><stop offset="1" stop-color="#F0F0F0"></stop></linearGradient><linearGradient id="building-i" x1="48.532" y1="55" x2="48.532" y2="151.868" gradientUnits="userSpaceOnUse"><stop stop-color="#D8E6F5"></stop><stop offset="1" stop-color="#F0F0F0"></stop></linearGradient><linearGradient id="building-j" x1="151.512" y1="64" x2="151.512" y2="140.868" gradientUnits="userSpaceOnUse"><stop stop-color="#D8E6F5"></stop><stop offset="1" stop-color="#F0F0F0"></stop></linearGradient></defs></svg>